<svg width="16" height="24" viewBox="0 0 16 24" fill="none" xmlns="http://www.w3.org/2000/svg">
<path fill-rule="evenodd" clip-rule="evenodd" d="M4.41494 0C1.96794 0 -5.85655e-05 2.053 -5.85655e-05 4.568C-5.85655e-05 6.097 0.727942 7.455 1.84694 8.284C1.27022 8.71609 0.802751 9.27728 0.482006 9.92259C0.16126 10.5679 -0.0038395 11.2794 -5.85655e-05 12C-5.85655e-05 13.53 0.727942 14.887 1.84694 15.716C1.27022 16.1481 0.802751 16.7093 0.482006 17.3546C0.16126 17.9999 -0.0038395 18.7114 -5.85655e-05 19.432C-5.85655e-05 21.947 1.96794 24 4.41494 24C6.86094 24 8.82994 21.947 8.82994 19.432V15.57C9.60327 16.2148 10.5781 16.5683 11.5849 16.569C14.0319 16.568 15.9999 14.515 15.9999 12C16.004 11.2793 15.839 10.5678 15.5182 9.92243C15.1974 9.27708 14.7298 8.71592 14.1529 8.284C14.7297 7.85191 15.1971 7.29072 15.5179 6.64541C15.8386 6.0001 16.0037 5.28862 15.9999 4.568C15.9999 2.053 14.0319 0 11.5849 0H4.41494V0ZM1.65894 4.568C1.65894 2.977 2.90094 1.703 4.41494 1.703H7.16994V7.433H4.41494C2.90094 7.433 1.65894 6.158 1.65894 4.568V4.568ZM11.5849 7.432H8.82994V1.702H11.5849C13.0999 1.702 14.3409 2.977 14.3409 4.568C14.3409 6.158 13.0999 7.432 11.5849 7.432ZM1.65994 12C1.65994 10.41 2.90194 9.135 4.41594 9.135H7.17094V14.865H4.41494C2.89994 14.865 1.65894 13.59 1.65894 12H1.65994ZM8.82994 12C8.82994 10.41 10.0719 9.135 11.5859 9.135C13.1009 9.135 14.3419 10.409 14.3419 12C14.3419 13.59 13.1009 14.865 11.5859 14.865C10.0719 14.865 8.83094 13.591 8.83094 12H8.82994ZM1.65994 19.432C1.65994 17.842 2.90194 16.568 4.41594 16.568H7.17094V19.432C7.17094 21.023 5.93094 22.297 4.41594 22.297C2.90194 22.297 1.65994 21.023 1.65994 19.432Z" fill="white"/>
</svg>
