<svg width="16" height="22" viewBox="0 0 16 22" fill="none" xmlns="http://www.w3.org/2000/svg">
<path d="M1.23901 14.063L3.21001 1.381C3.22448 1.28708 3.26811 1.20009 3.33475 1.13234C3.40138 1.06459 3.48763 1.0195 3.58129 1.00347C3.67495 0.987433 3.77129 1.00126 3.85666 1.04299C3.94204 1.08472 4.01212 1.15224 4.05701 1.236L6.17701 5.215L1.23901 14.063ZM15.24 17.14L13.363 5.469C13.3489 5.38732 13.3127 5.31107 13.2583 5.24851C13.2039 5.18595 13.1334 5.13948 13.0545 5.11414C12.9755 5.08879 12.8912 5.08553 12.8105 5.10473C12.7299 5.12392 12.6561 5.16482 12.597 5.223L0.76001 17.14L7.31001 20.831C7.72101 21.061 8.22201 21.061 8.63301 20.831L15.24 17.14ZM9.91701 6.955L8.40001 4.052C8.36166 3.97913 8.30413 3.91811 8.23364 3.87555C8.16314 3.83298 8.08236 3.81049 8.00001 3.81049C7.91766 3.81049 7.83688 3.83298 7.76638 3.87555C7.69589 3.91811 7.63836 3.97913 7.60001 4.052L0.93901 15.989L9.91701 6.955Z" fill="white"/>
</svg>
