<svg width="251" height="224" viewBox="0 0 251 224" fill="none" xmlns="http://www.w3.org/2000/svg">
<path d="M251 112.247C251 95.6187 230.177 79.858 198.248 70.0899C205.621 37.554 202.348 11.6592 187.915 3.36575C184.418 1.40711 180.46 0.421223 176.453 0.51062V11.9102C178.806 11.9102 180.699 12.3808 182.289 13.2489C189.244 17.244 192.266 32.4295 189.913 51.9761C189.348 56.7869 188.428 61.8487 187.298 67.0152C176.606 64.4386 165.754 62.5764 154.815 61.4409C148.298 52.4497 141.188 43.9037 133.532 35.8598C150.213 20.3605 165.869 11.8684 176.516 11.8684V0.458328C162.439 0.458328 144.022 10.4879 125.395 27.8801C106.78 10.6029 88.352 0.667495 74.2855 0.667495V12.0671C84.8798 12.0671 100.588 20.5174 117.269 35.9121C110.105 43.4421 102.941 51.9761 96.133 61.4409C85.1709 62.5638 74.2997 64.4438 63.5971 67.0675C62.466 62.1708 61.576 57.2215 60.9303 52.2375C58.5248 32.6805 61.495 17.495 68.408 13.458C69.9349 12.5377 71.9324 12.1194 74.2855 12.1194V0.719786C69.9976 0.719786 66.0967 1.64012 62.7291 3.57491C48.3489 11.8684 45.1277 37.7005 52.5427 70.1422C20.718 79.973 0 95.671 0 112.247C0 128.876 20.8225 144.637 52.7518 154.395C45.3787 186.941 48.6522 212.836 63.0847 221.119C66.4104 223.064 70.3009 223.984 74.5888 223.984C88.6657 223.984 107.083 213.955 125.709 196.563C144.325 213.85 162.742 223.775 176.819 223.775C180.857 223.86 184.845 222.872 188.375 220.91C202.756 212.627 205.977 186.794 198.562 154.353C230.282 144.585 251 128.824 251 112.247ZM184.38 78.1219C182.393 84.9602 180.09 91.7026 177.478 98.3274C173.202 90.0105 168.507 81.9158 163.411 74.0745C170.68 75.1517 177.687 76.48 184.391 78.1219H184.38ZM160.954 132.61C157.123 139.298 153.009 145.819 148.623 152.156C133.273 153.509 117.834 153.527 102.481 152.209C93.6747 139.629 85.9731 126.311 79.4624 112.404C85.9631 98.4645 93.6321 85.0998 102.387 72.4535C117.734 71.0978 133.169 71.0768 148.519 72.3907C152.765 78.4775 156.917 84.9826 160.901 91.8432C164.792 98.5366 168.327 105.335 171.548 112.195C168.291 119.139 164.757 125.949 160.954 132.61V132.61ZM177.478 125.958C180.239 132.809 182.602 139.669 184.537 146.321C177.844 147.963 170.774 149.343 163.464 150.41C168.539 142.497 173.216 134.337 177.478 125.958V125.958ZM125.605 180.551C120.846 175.635 116.087 170.166 111.381 164.173C115.983 164.382 120.689 164.539 125.448 164.539C130.259 164.539 135.017 164.435 139.671 164.173C135.069 170.166 130.311 175.635 125.605 180.551ZM87.5362 150.41C80.4847 149.388 73.484 148.041 66.5568 146.373C68.4498 139.774 70.8029 132.965 73.4593 126.168C75.5615 130.246 77.7682 134.346 80.1736 138.446C82.579 142.535 85.0262 146.53 87.5362 150.41ZM125.343 43.9441C130.102 48.8595 134.86 54.3292 139.566 60.3218C134.965 60.1127 130.259 59.9558 125.5 59.9558C120.689 59.9558 115.931 60.0604 111.277 60.3218C115.878 54.3292 120.637 48.8595 125.343 43.9441ZM87.484 74.085C82.4103 81.9803 77.7331 90.1235 73.4698 98.4843C70.7842 91.8167 68.4283 85.021 66.4104 78.1219C73.1037 76.5322 80.1736 75.1517 87.484 74.085ZM41.1849 138.132C23.0711 130.414 11.3577 120.279 11.3577 112.247C11.3577 104.215 23.0711 94.029 41.1849 86.3631C45.5774 84.4701 50.3883 82.7759 55.356 81.1967C58.2738 91.2158 62.112 101.653 66.8601 112.352C62.3773 122.415 58.5861 132.772 55.5128 143.351C50.6544 141.846 45.8727 140.105 41.1849 138.132V138.132ZM68.7112 211.236C61.7565 207.261 58.734 192.055 61.0871 172.519C61.6519 167.708 62.5722 162.636 63.7017 157.469C73.7208 159.927 84.6707 161.82 96.1853 163.054C102.703 172.045 109.813 180.591 117.468 188.635C100.787 204.134 85.1308 212.627 74.4843 212.627C72.4756 212.648 70.4927 212.174 68.7112 211.246V211.236ZM190.07 172.257C192.475 191.804 189.505 207 182.592 211.037C181.065 211.957 179.068 212.365 176.714 212.365C166.12 212.365 150.412 203.925 133.731 188.52C141.354 180.51 148.416 171.983 154.867 163.002C165.829 161.879 176.7 159.999 187.403 157.375C188.585 162.542 189.495 167.499 190.07 172.257V172.257ZM209.763 138.132C205.37 140.025 200.559 141.719 195.592 143.298C192.464 132.665 188.621 122.257 184.088 112.143C188.794 101.507 192.569 91.1216 195.435 81.1444C200.309 82.6537 205.108 84.3952 209.815 86.3631C227.929 94.0813 239.642 104.215 239.642 112.247C239.59 120.279 227.877 130.466 209.763 138.132V138.132Z" fill="white"/>
<path d="M125.448 135.632C131.65 135.632 137.598 133.169 141.983 128.783C146.369 124.398 148.833 118.449 148.833 112.247C148.833 106.045 146.369 100.097 141.983 95.7119C137.598 91.3264 131.65 88.8626 125.448 88.8626C119.246 88.8626 113.298 91.3264 108.912 95.7119C104.527 100.097 102.063 106.045 102.063 112.247C102.063 118.449 104.527 124.398 108.912 128.783C113.298 133.169 119.246 135.632 125.448 135.632V135.632Z" fill="white"/>
</svg>
